<svg xmlns="http://www.w3.org/2000/svg" width="24" height="24" fill="none" viewbox="0 0 24 24">
  <style>
        #bg { fill: #93C5FD; }
        #k { fill: #1D4ED8; }
        @media (prefers-color-scheme: dark) {
          #bg { fill: #A5B4FC; }
          #k { fill: #4338CA; }
        }
    </style>
  <rect id="bg" width="24" height="24" rx="5"/>
  <path id="k" d="M8.54 19a1.13 1.13 0 0 1-1.12-1.14V5.14A1.13 1.13 0 0 1 8.54 4h.98c.307 0 .567.113.78.34.227.227.34.493.34.8v7.38c0 .013.007.02.02.02l.04-.02 2.5-3.04c.48-.587 1.093-.88 1.84-.88h1.44c.213 0 .367.1.46.3.107.2.087.387-.06.56l-3.42 4.02c-.067.08-.067.167 0 .26l3.46 4.38c.133.187.147.38.04.58a.49.49 0 0 1-.48.3h-1.44c-.747 0-1.353-.3-1.82-.9l-2.52-3.28c-.013-.013-.027-.02-.04-.02-.013 0-.02.007-.02.02v3.04c0 .307-.113.573-.34.8a1.03 1.03 0 0 1-.78.34h-.98Z"/>
</svg>
